<?xml version="1.0" encoding="UTF-8"?>
<!DOCTYPE svg PUBLIC "-//W3C//DTD SVG 1.1//EN" "http://www.w3.org/Graphics/SVG/1.1/DTD/svg11.dtd">
<!-- Creator: CorelDRAW X8 -->
<svg xmlns="http://www.w3.org/2000/svg" xml:space="preserve" width="40px" height="40px" version="1.1" style="shape-rendering:geometricPrecision; text-rendering:geometricPrecision; image-rendering:optimizeQuality; fill-rule:evenodd; clip-rule:evenodd"
viewBox="0 0 643 643"
 xmlns:xlink="http://www.w3.org/1999/xlink">
 <defs>
  <style type="text/css">
   <![CDATA[
    .fil1 {fill:none}
    .fil0 {fill:#547491}
   ]]>
  </style>
   <clipPath id="id0">
    <path d="M0 0l643 0 0 643 -643 0 0 -643z"/>
   </clipPath>
 </defs>
 <g id="Слой_x0020_1">
  <metadata id="CorelCorpID_0Corel-Layer"/>
  <g>
  </g>
  <g style="clip-path:url(#id0)">
   <g>
    <path class="fil0" d="M201 358c-1,22 28,21 34,9 2,-4 9,-47 11,-55 3,-18 2,-20 8,-24 4,-3 31,-23 34,-23 -1,2 -3,14 -4,18 -3,11 -12,48 -12,56 0,19 16,43 28,59 30,44 62,85 91,129 11,13 28,26 45,11 5,-4 7,-10 6,-17 -2,-8 -3,-12 -7,-17 -3,-6 -6,-10 -10,-15l-80 -125c-2,-2 -4,-5 -4,-7l14 -59c3,5 12,19 17,23 8,7 37,17 50,23 20,9 24,2 29,-4 4,-8 6,-21 -15,-28l-37 -14c-4,-2 -7,-8 -9,-12 -6,-12 -21,-47 -27,-55 -6,-9 -16,-21 -18,-23 -4,-2 -23,-2 -39,-2 -8,0 -19,7 -23,10 -12,10 -24,19 -36,29 -11,9 -19,14 -23,18 -10,8 -10,14 -11,25 -3,19 -11,54 -12,70z"/>
    <path class="fil0" d="M197 540c15,12 31,-3 39,-14 13,-16 45,-47 51,-61 8,-19 12,-32 13,-37 -8,-9 -26,-35 -30,-40 -2,-3 -2,-4 -5,-6 -7,21 -14,56 -25,72 -12,16 -29,35 -41,49 -11,13 -14,28 -2,37z"/>
    <path class="fil0" d="M368 181c5,-4 7,-6 10,-11 11,-18 9,-40 -6,-56 -1,-2 -3,-4 -5,-5 -2,-2 -4,-3 -7,-4 -22,-11 -47,-1 -56,20 -2,5 -4,11 -4,16l0 10c5,35 43,50 68,30z"/>
   </g>
  </g>
  <polygon style="fill:#547491" class="fil1" points="0,0 643,0 643,643 0,643 "/>
 </g>
</svg>
